<svg width="1788" height="204" viewBox="0 0 1788 204" fill="none" xmlns="http://www.w3.org/2000/svg">
<path d="M249 173.833V29.3611H286.791V84.9722H329.648V29.3611H367.439V173.833H329.648V118.806H286.791V173.833H249Z" fill="black"/>
<path d="M432.653 173.833V132.806L390.771 29.3611H429.926L452.328 94.3056L474.73 29.3611H512.327L470.444 132.806V173.833H432.653Z" fill="black"/>
<path d="M535.662 173.833V29.3611H599.167C604.102 29.3611 609.167 29.9444 614.361 31.1111C619.556 32.1481 624.296 34.4167 628.582 37.9167C632.997 41.287 636.504 46.4722 639.101 53.4722C641.828 60.3426 643.192 69.5463 643.192 81.0833C643.192 92.75 641.893 102.148 639.296 109.278C636.698 116.278 633.322 121.593 629.166 125.222C625.01 128.722 620.465 131.12 615.53 132.417C610.725 133.583 605.985 134.167 601.31 134.167C598.842 134.167 596.245 134.037 593.518 133.778C590.92 133.519 588.323 133.194 585.725 132.806C583.258 132.287 580.92 131.833 578.713 131.444C576.635 130.926 574.882 130.537 573.453 130.278V173.833H535.662ZM573.453 100.333H595.271C597.868 100.333 599.881 99.6204 601.31 98.1944C602.868 96.7685 603.907 94.6944 604.426 91.9722C605.076 89.1203 605.4 85.6204 605.4 81.4722C605.4 77.4537 605.011 74.0834 604.232 71.3611C603.582 68.6389 602.543 66.6296 601.115 65.3333C599.686 63.9074 597.738 63.1945 595.271 63.1945H573.453V100.333Z" fill="black"/>
<path d="M708.803 175C705.686 175 701.92 174.676 697.505 174.028C693.219 173.38 688.998 171.954 684.843 169.75C680.817 167.546 677.44 164.176 674.713 159.639C671.986 154.972 670.622 148.62 670.622 140.583V65.1389C670.622 58.1388 671.726 52.3055 673.934 47.6389C676.142 42.9722 678.999 39.3426 682.505 36.75C686.011 34.0278 689.907 32.1481 694.193 31.1111C698.479 29.9444 702.634 29.3611 706.66 29.3611C717.569 29.3611 726.92 29.5555 734.712 29.9444C742.634 30.2037 749.452 30.5278 755.166 30.9167C761.01 31.3055 766.14 31.7593 770.555 32.2778V64.1667H718.348C715.102 64.1667 712.634 64.8797 710.946 66.3056C709.258 67.7315 708.413 69.8704 708.413 72.7222V84.7778L760.815 86.7222V116.667L708.413 118.611V129.5C708.413 131.833 708.738 133.778 709.388 135.333C710.167 136.759 711.206 137.861 712.504 138.639C713.803 139.287 715.232 139.611 716.79 139.611H770.555V171.5C764.971 172.278 758.607 172.926 751.464 173.444C744.322 173.963 737.049 174.352 729.647 174.611C722.244 174.87 715.297 175 708.803 175Z" fill="black"/>
<path d="M799.876 173.833V29.3611H861.627C867.991 29.3611 873.835 30.1389 879.159 31.6944C884.484 33.25 889.094 35.9074 892.99 39.6667C896.886 43.2963 899.873 48.2222 901.951 54.4444C904.159 60.6666 905.263 68.5092 905.263 77.9722C905.263 83.9352 904.743 89.1203 903.704 93.5278C902.666 97.9352 901.237 101.694 899.419 104.806C897.731 107.787 895.653 110.315 893.185 112.389C890.848 114.463 888.315 116.278 885.588 117.833L910.717 173.833H872.341L852.082 124.056C850.913 124.056 849.68 124.056 848.381 124.056C847.212 124.056 846.043 124.056 844.875 124.056C843.706 124.056 842.472 124.056 841.173 124.056C840.005 124.056 838.836 124.056 837.667 124.056V173.833H799.876ZM837.667 94.1111H854.809C856.887 94.1111 858.705 93.8518 860.264 93.3333C861.822 92.6852 863.121 91.7129 864.16 90.4166C865.329 89.1203 866.173 87.5 866.692 85.5556C867.212 83.4815 867.471 81.0185 867.471 78.1666C867.471 75.3148 867.212 72.9167 866.692 70.9722C866.173 69.0278 865.329 67.5371 864.16 66.5C863.121 65.3334 861.822 64.4907 860.264 63.9722C858.705 63.4537 856.887 63.1945 854.809 63.1945H837.667V94.1111Z" fill="black"/>
<path d="M936.168 173.833V65.1389C936.168 58.1388 937.272 52.3055 939.479 47.6389C941.687 42.9722 944.544 39.3426 948.051 36.75C951.557 34.0278 955.453 32.1481 959.739 31.1111C964.024 29.9444 968.18 29.3611 972.206 29.3611C976.232 29.3611 981.816 29.4259 988.959 29.5555C996.101 29.5555 1003.83 29.8148 1012.14 30.3333C1020.58 30.7222 1028.57 31.4352 1036.1 32.4722V64.1667H983.115C979.868 64.1667 977.53 65.074 976.102 66.8889C974.673 68.574 973.959 70.3889 973.959 72.3333V88.6666L1026.36 90.6111V120.556L973.959 122.5V173.833H936.168Z" fill="black"/>
<path d="M1063.33 173.833V29.3611H1101.12V173.833H1063.33Z" fill="black"/>
<path d="M1173.92 174.806C1164.96 174.806 1157.62 172.926 1151.91 169.167C1146.32 165.278 1141.97 160.028 1138.85 153.417C1135.74 146.676 1133.53 138.898 1132.23 130.083C1131.06 121.269 1130.48 111.87 1130.48 101.889C1130.48 90.7407 1131.19 80.6297 1132.62 71.5556C1134.18 62.4815 1136.91 54.7037 1140.8 48.2222C1144.83 41.7407 1150.54 36.75 1157.95 33.25C1165.35 29.75 1174.96 28 1186.78 28C1194.44 28 1201 28.3241 1206.45 28.9722C1212.04 29.4907 1217.23 30.3333 1222.03 31.5C1226.84 32.537 1231.84 33.7685 1237.03 35.1944V64.5555C1234.18 64.037 1230.54 63.5833 1226.13 63.1945C1221.71 62.8056 1216.78 62.4815 1211.32 62.2222C1205.87 61.963 1200.09 61.8333 1193.98 61.8333C1186.45 61.8333 1180.87 63 1177.23 65.3333C1173.59 67.537 1171.19 71.5556 1170.02 77.3889C1168.85 83.2222 1168.27 91.3889 1168.27 101.889C1168.27 109.926 1168.59 116.472 1169.24 121.528C1169.89 126.454 1170.93 130.278 1172.36 133C1173.92 135.722 1175.87 137.602 1178.2 138.639C1180.54 139.676 1183.33 140.194 1186.58 140.194C1191.39 140.194 1195.67 140 1199.44 139.611C1203.2 139.093 1206.06 138.639 1208.01 138.25V119.583H1187.94V89.6389C1190.8 89.25 1194.18 88.9259 1198.07 88.6666C1202.1 88.4074 1206.19 88.213 1210.35 88.0833C1214.63 87.8241 1218.53 87.6944 1222.03 87.6944C1226.71 87.6944 1230.8 87.7593 1234.31 87.8889C1237.94 87.8889 1241.26 87.9537 1244.24 88.0833V173.833H1215.8L1210.74 164.306C1207.62 166.38 1202.75 168.648 1196.13 171.111C1189.5 173.574 1182.1 174.806 1173.92 174.806Z" fill="black"/>
<path d="M1334.01 174.806C1326.09 174.806 1318.55 174.157 1311.41 172.861C1304.4 171.565 1298.16 169.167 1292.71 165.667C1287.26 162.167 1282.97 157.241 1279.85 150.889C1276.87 144.537 1275.37 136.306 1275.37 126.194V29.3611H1313.16V126C1313.16 129.37 1313.94 132.157 1315.5 134.361C1317.19 136.565 1319.59 138.25 1322.71 139.417C1325.83 140.454 1329.59 140.972 1334.01 140.972C1338.42 140.972 1342.19 140.454 1345.31 139.417C1348.42 138.25 1350.76 136.565 1352.32 134.361C1354.01 132.157 1354.85 129.37 1354.85 126V29.3611H1392.64V126.194C1392.64 136.306 1391.08 144.537 1387.97 150.889C1384.98 157.241 1380.76 162.167 1375.31 165.667C1369.85 169.167 1363.62 171.565 1356.6 172.861C1349.59 174.157 1342.06 174.806 1334.01 174.806Z" fill="black"/>
<path d="M1423.89 173.833V29.3611H1485.64C1492 29.3611 1497.84 30.1389 1503.17 31.6944C1508.49 33.25 1513.1 35.9074 1517 39.6667C1520.9 43.2963 1523.88 48.2222 1525.96 54.4444C1528.17 60.6666 1529.27 68.5092 1529.27 77.9722C1529.27 83.9352 1528.75 89.1203 1527.71 93.5278C1526.68 97.9352 1525.25 101.694 1523.43 104.806C1521.74 107.787 1519.66 110.315 1517.19 112.389C1514.86 114.463 1512.32 116.278 1509.6 117.833L1534.73 173.833H1496.35L1476.09 124.056C1474.92 124.056 1473.69 124.056 1472.39 124.056C1471.22 124.056 1470.05 124.056 1468.88 124.056C1467.72 124.056 1466.48 124.056 1465.18 124.056C1464.01 124.056 1462.85 124.056 1461.68 124.056V173.833H1423.89ZM1461.68 94.1111H1478.82C1480.9 94.1111 1482.72 93.8518 1484.27 93.3333C1485.83 92.6852 1487.13 91.7129 1488.17 90.4166C1489.34 89.1203 1490.18 87.5 1490.7 85.5556C1491.22 83.4815 1491.48 81.0185 1491.48 78.1666C1491.48 75.3148 1491.22 72.9167 1490.7 70.9722C1490.18 69.0278 1489.34 67.5371 1488.17 66.5C1487.13 65.3334 1485.83 64.4907 1484.27 63.9722C1482.72 63.4537 1480.9 63.1945 1478.82 63.1945H1461.68V94.1111Z" fill="black"/>
<path d="M1598.36 175C1595.24 175 1591.48 174.676 1587.06 174.028C1582.77 173.38 1578.55 171.954 1574.4 169.75C1570.37 167.546 1567 164.176 1564.27 159.639C1561.54 154.972 1560.18 148.62 1560.18 140.583V65.1389C1560.18 58.1388 1561.28 52.3055 1563.49 47.6389C1565.7 42.9722 1568.55 39.3426 1572.06 36.75C1575.57 34.0278 1579.46 32.1481 1583.75 31.1111C1588.03 29.9444 1592.19 29.3611 1596.22 29.3611C1607.12 29.3611 1616.47 29.5555 1624.27 29.9444C1632.19 30.2037 1639.01 30.5278 1644.72 30.9167C1650.56 31.3055 1655.69 31.7593 1660.11 32.2778V64.1667H1607.9C1604.66 64.1667 1602.19 64.8797 1600.5 66.3056C1598.81 67.7315 1597.97 69.8704 1597.97 72.7222V84.7778L1650.37 86.7222V116.667L1597.97 118.611V129.5C1597.97 131.833 1598.29 133.778 1598.94 135.333C1599.72 136.759 1600.76 137.861 1602.06 138.639C1603.36 139.287 1604.79 139.611 1606.35 139.611H1660.11V171.5C1654.53 172.278 1648.16 172.926 1641.02 173.444C1633.88 173.963 1626.6 174.352 1619.2 174.611C1611.8 174.87 1604.85 175 1598.36 175Z" fill="black"/>
<path d="M1734.82 175C1730.53 175 1726.31 174.87 1722.16 174.611C1718.13 174.352 1714.11 173.963 1710.08 173.444C1706.18 172.926 1702.42 172.343 1698.78 171.694C1695.14 171.046 1691.64 170.269 1688.26 169.361V139.417C1692.68 139.806 1697.42 140.13 1702.48 140.389C1707.68 140.648 1712.87 140.843 1718.07 140.972C1723.39 141.102 1728.33 141.167 1732.87 141.167C1737.16 141.167 1740.73 140.843 1743.59 140.194C1746.44 139.546 1748.59 138.509 1750.01 137.083C1751.44 135.657 1752.16 133.713 1752.16 131.25V128.917C1752.16 126.065 1751.12 123.926 1749.04 122.5C1747.09 121.074 1744.75 120.361 1742.03 120.361H1731.7C1716.64 120.361 1705.21 117.056 1697.42 110.444C1689.63 103.833 1685.73 92.75 1685.73 77.1945V70.7778C1685.73 56.5185 1690.02 45.8889 1698.59 38.8889C1707.16 31.7593 1719.5 28.1944 1735.6 28.1944C1741.7 28.1944 1747.42 28.5185 1752.74 29.1667C1758.2 29.6852 1763.26 30.3982 1767.94 31.3056C1772.74 32.0833 1777.03 32.9259 1780.79 33.8333V63.7778C1774.82 63.2593 1768.07 62.8704 1760.53 62.6111C1753.13 62.2222 1746.38 62.0277 1740.27 62.0277C1736.64 62.0277 1733.39 62.287 1730.53 62.8055C1727.68 63.3241 1725.47 64.3611 1723.91 65.9167C1722.35 67.4722 1721.57 69.7407 1721.57 72.7222V74.6667C1721.57 77.9074 1722.61 80.3703 1724.69 82.0555C1726.77 83.7407 1729.95 84.5833 1734.23 84.5833H1747.09C1756.18 84.5833 1763.71 86.3333 1769.69 89.8333C1775.79 93.2037 1780.34 97.8704 1783.32 103.833C1786.44 109.667 1788 116.343 1788 123.861V130.278C1788 142.593 1785.86 151.991 1781.57 158.472C1777.29 164.954 1771.18 169.361 1763.26 171.694C1755.34 173.898 1745.86 175 1734.82 175Z" fill="black"/>
<path d="M3.81466 172.604C-14.6885 75.418 38.602 17.0405 67.5602 0L123.972 6.04664V33.5313L104.228 36.8295L100.843 50.5719L74.8937 56.0688C72.4492 65.9633 67.5602 82.784 67.5602 128.079C118.557 72.2298 176.435 113.237 199 133.576V183.598C167.597 201.188 84.5966 223.616 3.81466 172.604Z" fill="black"/>
</svg>
