<svg width="260" height="25" viewBox="0 0 260 25" fill="none" xmlns="http://www.w3.org/2000/svg">
<path d="M0 24.6318V0.229894H6.38311V9.62282H13.6217V0.229894H20.0048V24.6318H13.6217V15.3374H6.38311V24.6318H0Z" fill="#F1F1F1"/>
<path d="M31.0197 24.6318V17.7021L23.9456 0.229894H30.5591L34.3429 11.1993L38.1267 0.229894H44.4769L37.4028 17.7021V24.6318H31.0197Z" fill="#F1F1F1"/>
<path d="M48.4182 24.6318V0.229894H59.1445C59.978 0.229894 60.8335 0.328421 61.7109 0.525476C62.5883 0.700636 63.3889 1.0838 64.1128 1.67496C64.8586 2.24423 65.4508 3.12002 65.8895 4.30235C66.3502 5.46278 66.5805 7.01733 66.5805 8.96598C66.5805 10.9365 66.3611 12.5239 65.9224 13.7281C65.4837 14.9105 64.9134 15.8081 64.2115 16.4212C63.5096 17.0124 62.7418 17.4174 61.9083 17.6364C61.0967 17.8334 60.2961 17.932 59.5064 17.932C59.0897 17.932 58.651 17.9101 58.1903 17.8663C57.7516 17.8225 57.3129 17.7677 56.8742 17.7021C56.4574 17.6145 56.0626 17.5378 55.6897 17.4722C55.3388 17.3846 55.0426 17.3189 54.8013 17.2751V24.6318H48.4182ZM54.8013 12.2174H58.4864C58.9251 12.2174 59.2651 12.097 59.5064 11.8561C59.7696 11.6153 59.9451 11.2649 60.0329 10.8051C60.1425 10.3235 60.1974 9.7323 60.1974 9.03166C60.1974 8.35292 60.1316 7.78365 60 7.32386C59.8903 6.86407 59.7148 6.52468 59.4735 6.30573C59.2322 6.06489 58.9032 5.94448 58.4864 5.94448H54.8013V12.2174Z" fill="#F1F1F1"/>
<path d="M77.6625 24.8289C77.1361 24.8289 76.4999 24.7741 75.7541 24.6646C75.0303 24.5552 74.3174 24.3143 73.6155 23.9421C72.9355 23.5699 72.3652 23.0006 71.9045 22.2343C71.4439 21.4461 71.2136 20.3732 71.2136 19.0158V6.27289C71.2136 5.09057 71.4 4.1053 71.7729 3.31708C72.1458 2.52886 72.6284 1.91581 73.2206 1.47791C73.8129 1.01811 74.4709 0.700636 75.1948 0.525476C75.9187 0.328421 76.6206 0.229894 77.3006 0.229894C79.1431 0.229894 80.7224 0.262738 82.0385 0.328423C83.3766 0.372212 84.5282 0.426949 85.4933 0.492634C86.4804 0.558318 87.3468 0.634953 88.0926 0.722533V6.10869H79.2747C78.7263 6.10869 78.3096 6.22911 78.0244 6.46996C77.7393 6.7108 77.5967 7.07206 77.5967 7.55375V9.58998L86.4475 9.9184V14.9761L77.5967 15.3046V17.1437C77.5967 17.5378 77.6515 17.8663 77.7612 18.129C77.8928 18.3699 78.0683 18.556 78.2876 18.6873C78.507 18.7968 78.7483 18.8515 79.0115 18.8515H88.0926V24.2377C87.1494 24.3691 86.0746 24.4785 84.8682 24.5661C83.6617 24.6537 82.4334 24.7194 81.1831 24.7632C79.9328 24.807 78.7593 24.8289 77.6625 24.8289Z" fill="#F1F1F1"/>
<path d="M93.045 24.6318V0.229894H103.475C104.55 0.229894 105.537 0.361265 106.436 0.624004C107.336 0.886743 108.114 1.33559 108.772 1.97054C109.43 2.5836 109.935 3.41561 110.286 4.46656C110.659 5.51752 110.845 6.84217 110.845 8.4405C110.845 9.44766 110.758 10.3235 110.582 11.0679C110.407 11.8123 110.165 12.4473 109.858 12.9728C109.573 13.4763 109.222 13.9033 108.805 14.2536C108.41 14.6039 107.983 14.9105 107.522 15.1732L111.767 24.6318H105.285L101.863 16.2242C101.665 16.2242 101.457 16.2242 101.238 16.2242C101.04 16.2242 100.843 16.2242 100.645 16.2242C100.448 16.2242 100.24 16.2242 100.02 16.2242C99.8229 16.2242 99.6255 16.2242 99.4281 16.2242V24.6318H93.045ZM99.4281 11.1664H102.324C102.674 11.1664 102.982 11.1226 103.245 11.035C103.508 10.9256 103.727 10.7614 103.903 10.5424C104.1 10.3235 104.243 10.0498 104.331 9.72135C104.418 9.37104 104.462 8.95503 104.462 8.47334C104.462 7.99165 104.418 7.5866 104.331 7.25817C104.243 6.92975 104.1 6.67796 103.903 6.5028C103.727 6.30575 103.508 6.16342 103.245 6.07584C102.982 5.98826 102.674 5.94448 102.324 5.94448H99.4281V11.1664Z" fill="#F1F1F1"/>
<path d="M116.065 24.6318V6.27289C116.065 5.09057 116.252 4.1053 116.625 3.31708C116.997 2.52886 117.48 1.91581 118.072 1.47791C118.665 1.01811 119.323 0.700636 120.046 0.525476C120.77 0.328421 121.472 0.229894 122.152 0.229894C122.832 0.229894 123.775 0.240841 124.982 0.262736C126.188 0.262736 127.493 0.306526 128.897 0.394106C130.323 0.459791 131.672 0.580212 132.944 0.75537V6.10869H123.995C123.446 6.10869 123.052 6.26195 122.81 6.56847C122.569 6.85311 122.448 7.15965 122.448 7.48807V10.2468L131.299 10.5753V15.633L122.448 15.9614V24.6318H116.065Z" fill="#F1F1F1"/>
<path d="M137.543 24.6318V0.229894H143.926V24.6318H137.543Z" fill="#F1F1F1"/>
<path d="M156.222 24.796C154.709 24.796 153.47 24.4785 152.504 23.8436C151.561 23.1867 150.826 22.3 150.3 21.1834C149.773 20.0448 149.401 18.7311 149.181 17.2423C148.984 15.7534 148.885 14.166 148.885 12.4801C148.885 10.5971 149.006 8.88935 149.247 7.3567C149.51 5.82406 149.971 4.51035 150.629 3.41561C151.309 2.32086 152.274 1.4779 153.524 0.88674C154.775 0.295577 156.398 0 158.394 0C159.688 0 160.796 0.0547369 161.717 0.164211C162.66 0.251791 163.538 0.394108 164.349 0.591163C165.161 0.766323 166.005 0.974323 166.883 1.21517V6.17437C166.4 6.08679 165.786 6.01016 165.04 5.94448C164.294 5.87879 163.461 5.82405 162.54 5.78026C161.618 5.73647 160.642 5.71457 159.611 5.71457C158.339 5.71457 157.396 5.91163 156.782 6.30573C156.168 6.67795 155.762 7.3567 155.564 8.34197C155.367 9.32724 155.268 10.7066 155.268 12.4801C155.268 13.8376 155.323 14.9433 155.433 15.7972C155.542 16.6292 155.718 17.2751 155.959 17.7349C156.222 18.1947 156.551 18.5122 156.946 18.6873C157.341 18.8625 157.813 18.9501 158.361 18.9501C159.173 18.9501 159.896 18.9172 160.533 18.8515C161.169 18.764 161.651 18.6873 161.98 18.6216V15.4688H158.591V10.411C159.074 10.3454 159.644 10.2906 160.302 10.2468C160.982 10.203 161.673 10.1702 162.375 10.1483C163.099 10.1045 163.757 10.0826 164.349 10.0826C165.139 10.0826 165.83 10.0936 166.422 10.1155C167.036 10.1155 167.596 10.1264 168.1 10.1483V24.6318H163.296L162.441 23.0225C161.915 23.3728 161.092 23.756 159.973 24.172C158.855 24.588 157.604 24.796 156.222 24.796Z" fill="#F1F1F1"/>
<path d="M183.262 24.796C181.924 24.796 180.652 24.6865 179.445 24.4676C178.261 24.2486 177.208 23.8436 176.287 23.2524C175.365 22.6613 174.641 21.8293 174.115 20.7564C173.61 19.6835 173.358 18.2932 173.358 16.5854V0.229894H179.741V16.5526C179.741 17.1218 179.873 17.5926 180.136 17.9648C180.421 18.337 180.827 18.6216 181.354 18.8187C181.88 18.9939 182.516 19.0814 183.262 19.0814C184.008 19.0814 184.644 18.9939 185.17 18.8187C185.697 18.6216 186.091 18.337 186.355 17.9648C186.64 17.5926 186.782 17.1218 186.782 16.5526V0.229894H193.166V16.5854C193.166 18.2932 192.902 19.6835 192.376 20.7564C191.871 21.8293 191.158 22.6613 190.237 23.2524C189.316 23.8436 188.263 24.2486 187.079 24.4676C185.894 24.6865 184.622 24.796 183.262 24.796Z" fill="#F1F1F1"/>
<path d="M198.443 24.6318V0.229894H208.873C209.948 0.229894 210.935 0.361265 211.834 0.624004C212.733 0.886743 213.512 1.33559 214.17 1.97054C214.828 2.5836 215.333 3.41561 215.684 4.46656C216.056 5.51752 216.243 6.84217 216.243 8.4405C216.243 9.44766 216.155 10.3235 215.98 11.0679C215.804 11.8123 215.563 12.4473 215.256 12.9728C214.971 13.4763 214.62 13.9033 214.203 14.2536C213.808 14.6039 213.38 14.9105 212.92 15.1732L217.164 24.6318H210.682L207.26 16.2242C207.063 16.2242 206.855 16.2242 206.635 16.2242C206.438 16.2242 206.241 16.2242 206.043 16.2242C205.846 16.2242 205.637 16.2242 205.418 16.2242C205.221 16.2242 205.023 16.2242 204.826 16.2242V24.6318H198.443ZM204.826 11.1664H207.721C208.072 11.1664 208.379 11.1226 208.642 11.035C208.906 10.9256 209.125 10.7614 209.3 10.5424C209.498 10.3235 209.64 10.0498 209.728 9.72135C209.816 9.37104 209.86 8.95503 209.86 8.47334C209.86 7.99165 209.816 7.5866 209.728 7.25817C209.64 6.92975 209.498 6.67796 209.3 6.5028C209.125 6.30575 208.906 6.16342 208.642 6.07584C208.379 5.98826 208.072 5.94448 207.721 5.94448H204.826V11.1664Z" fill="#F1F1F1"/>
<path d="M227.912 24.8289C227.385 24.8289 226.749 24.7741 226.003 24.6646C225.28 24.5552 224.567 24.3143 223.865 23.9421C223.185 23.5699 222.614 23.0006 222.154 22.2343C221.693 21.4461 221.463 20.3732 221.463 19.0158V6.27289C221.463 5.09057 221.649 4.1053 222.022 3.31708C222.395 2.52886 222.878 1.91581 223.47 1.47791C224.062 1.01811 224.72 0.700636 225.444 0.525476C226.168 0.328421 226.87 0.229894 227.55 0.229894C229.392 0.229894 230.972 0.262738 232.288 0.328423C233.626 0.372212 234.777 0.426949 235.743 0.492634C236.73 0.558318 237.596 0.634953 238.342 0.722533V6.10869H229.524C228.976 6.10869 228.559 6.22911 228.274 6.46996C227.988 6.7108 227.846 7.07206 227.846 7.55375V9.58998L236.697 9.9184V14.9761L227.846 15.3046V17.1437C227.846 17.5378 227.901 17.8663 228.01 18.129C228.142 18.3699 228.318 18.556 228.537 18.6873C228.756 18.7968 228.998 18.8515 229.261 18.8515H238.342V24.2377C237.399 24.3691 236.324 24.4785 235.117 24.5661C233.911 24.6537 232.683 24.7194 231.432 24.7632C230.182 24.807 229.008 24.8289 227.912 24.8289Z" fill="#F1F1F1"/>
<path d="M250.961 24.8289C250.237 24.8289 249.524 24.807 248.822 24.7632C248.142 24.7194 247.462 24.6537 246.782 24.5661C246.124 24.4785 245.488 24.38 244.874 24.2705C244.259 24.1611 243.667 24.0297 243.097 23.8764V18.8187C243.843 18.8844 244.643 18.9391 245.499 18.9829C246.376 19.0267 247.254 19.0595 248.131 19.0814C249.03 19.1033 249.864 19.1143 250.632 19.1143C251.355 19.1143 251.959 19.0595 252.441 18.9501C252.924 18.8406 253.286 18.6654 253.527 18.4246C253.768 18.1837 253.889 17.8553 253.889 17.4393V17.0452C253.889 16.5635 253.713 16.2023 253.362 15.9614C253.033 15.7206 252.639 15.6001 252.178 15.6001H250.434C247.89 15.6001 245.959 15.0418 244.643 13.9252C243.327 12.8085 242.669 10.9365 242.669 8.30913V7.22533C242.669 4.81689 243.393 3.0215 244.841 1.83918C246.288 0.634954 248.372 0.0328415 251.092 0.0328415C252.123 0.0328415 253.088 0.0875783 253.988 0.197053C254.909 0.284633 255.764 0.405058 256.554 0.558321C257.366 0.689691 258.089 0.832008 258.726 0.985273V6.043C257.717 5.95542 256.576 5.88974 255.304 5.84595C254.053 5.78026 252.913 5.74741 251.882 5.74741C251.268 5.74741 250.719 5.79121 250.237 5.87879C249.754 5.96637 249.381 6.14153 249.118 6.40427C248.855 6.66701 248.723 7.05017 248.723 7.55375V7.88217C248.723 8.42955 248.899 8.84555 249.25 9.13018C249.601 9.41482 250.138 9.55714 250.862 9.55714H253.033C254.569 9.55714 255.841 9.85272 256.85 10.4439C257.881 11.0132 258.649 11.8014 259.153 12.8085C259.68 13.7938 259.943 14.9214 259.943 16.1913V17.2751C259.943 19.3551 259.581 20.9425 258.857 22.0373C258.133 23.132 257.102 23.8764 255.764 24.2705C254.426 24.6428 252.825 24.8289 250.961 24.8289Z" fill="#F1F1F1"/>
</svg>
