<svg width="565" height="362" viewBox="0 0 565 362" fill="none" xmlns="http://www.w3.org/2000/svg">
<path d="M45 310.64V266.026H56.6394V283.199H69.8388V266.026H81.4783V310.64H69.8388V293.647H56.6394V310.64H45Z" fill="black"/>
<path d="M101.564 310.64V297.97L88.6643 266.026H100.724L107.623 286.081L114.523 266.026H126.103L113.203 297.97V310.64H101.564Z" fill="black"/>
<path d="M133.29 310.64V266.026H152.849C154.369 266.026 155.928 266.206 157.528 266.567C159.128 266.887 160.588 267.587 161.908 268.668C163.268 269.709 164.348 271.31 165.148 273.472C165.988 275.593 166.408 278.436 166.408 281.998C166.408 285.601 166.008 288.503 165.208 290.705C164.408 292.866 163.368 294.508 162.088 295.628C160.808 296.709 159.408 297.45 157.888 297.85C156.408 298.21 154.949 298.391 153.509 298.391C152.749 298.391 151.949 298.351 151.109 298.27C150.309 298.19 149.509 298.09 148.709 297.97C147.949 297.81 147.229 297.67 146.549 297.55C145.909 297.39 145.369 297.27 144.929 297.19V310.64H133.29ZM144.929 287.943H151.649C152.449 287.943 153.069 287.723 153.509 287.282C153.989 286.842 154.309 286.201 154.469 285.361C154.669 284.48 154.769 283.399 154.769 282.118C154.769 280.877 154.649 279.837 154.409 278.996C154.209 278.155 153.889 277.535 153.449 277.135C153.009 276.694 152.409 276.474 151.649 276.474H144.929V287.943Z" fill="black"/>
<path d="M186.616 311C185.656 311 184.496 310.9 183.136 310.7C181.816 310.5 180.516 310.059 179.236 309.379C177.996 308.698 176.956 307.658 176.116 306.256C175.276 304.815 174.856 302.854 174.856 300.372V277.075C174.856 274.913 175.196 273.112 175.876 271.671C176.556 270.229 177.436 269.109 178.516 268.308C179.596 267.467 180.796 266.887 182.116 266.567C183.436 266.206 184.716 266.026 185.956 266.026C189.316 266.026 192.195 266.086 194.595 266.206C197.035 266.286 199.135 266.387 200.895 266.507C202.695 266.627 204.275 266.767 205.635 266.927V276.774H189.556C188.556 276.774 187.796 276.995 187.276 277.435C186.756 277.875 186.496 278.536 186.496 279.416V283.139L202.635 283.74V292.987L186.496 293.587V296.949C186.496 297.67 186.596 298.27 186.796 298.751C187.036 299.191 187.356 299.531 187.756 299.772C188.156 299.972 188.596 300.072 189.076 300.072H205.635V309.919C203.915 310.159 201.955 310.36 199.755 310.52C197.555 310.68 195.315 310.8 193.035 310.88C190.756 310.96 188.616 311 186.616 311Z" fill="black"/>
<path d="M214.665 310.64V266.026H233.684C235.644 266.026 237.444 266.266 239.084 266.747C240.724 267.227 242.144 268.048 243.344 269.209C244.544 270.329 245.464 271.851 246.104 273.772C246.784 275.694 247.124 278.115 247.124 281.038C247.124 282.879 246.964 284.48 246.644 285.841C246.324 287.202 245.884 288.363 245.324 289.324C244.804 290.244 244.164 291.025 243.404 291.666C242.684 292.306 241.904 292.866 241.064 293.347L248.804 310.64H236.984L230.745 295.268C230.385 295.268 230.005 295.268 229.605 295.268C229.245 295.268 228.885 295.268 228.525 295.268C228.165 295.268 227.785 295.268 227.385 295.268C227.025 295.268 226.665 295.268 226.305 295.268V310.64H214.665ZM226.305 286.021H231.585C232.225 286.021 232.785 285.941 233.264 285.781C233.744 285.581 234.144 285.281 234.464 284.88C234.824 284.48 235.084 283.98 235.244 283.379C235.404 282.739 235.484 281.978 235.484 281.098C235.484 280.217 235.404 279.476 235.244 278.876C235.084 278.275 234.824 277.815 234.464 277.495C234.144 277.135 233.744 276.874 233.264 276.714C232.785 276.554 232.225 276.474 231.585 276.474H226.305V286.021Z" fill="black"/>
<path d="M256.642 310.64V277.075C256.642 274.913 256.982 273.112 257.662 271.671C258.342 270.229 259.222 269.109 260.302 268.308C261.382 267.467 262.582 266.887 263.902 266.567C265.222 266.206 266.502 266.026 267.742 266.026C268.982 266.026 270.702 266.046 272.902 266.086C275.101 266.086 277.481 266.166 280.041 266.326C282.641 266.447 285.101 266.667 287.421 266.987V276.774H271.102C270.102 276.774 269.382 277.055 268.942 277.615C268.502 278.135 268.282 278.696 268.282 279.296V284.34L284.421 284.94V294.187L268.282 294.788V310.64H256.642Z" fill="black"/>
<path d="M295.807 310.64V266.026H307.446V310.64H295.807Z" fill="black"/>
<path d="M329.868 310.94C327.108 310.94 324.848 310.36 323.088 309.199C321.368 307.998 320.028 306.377 319.068 304.335C318.108 302.253 317.428 299.852 317.029 297.13C316.669 294.408 316.489 291.505 316.489 288.423C316.489 284.98 316.709 281.858 317.148 279.056C317.628 276.254 318.468 273.852 319.668 271.851C320.908 269.849 322.668 268.308 324.948 267.227C327.228 266.146 330.188 265.606 333.828 265.606C336.188 265.606 338.207 265.706 339.887 265.906C341.607 266.066 343.207 266.326 344.687 266.687C346.167 267.007 347.707 267.387 349.307 267.828V276.894C348.427 276.734 347.307 276.594 345.947 276.474C344.587 276.354 343.067 276.254 341.387 276.174C339.707 276.094 337.928 276.054 336.048 276.054C333.728 276.054 332.008 276.414 330.888 277.135C329.768 277.815 329.028 279.056 328.668 280.857C328.308 282.659 328.128 285.181 328.128 288.423C328.128 290.905 328.228 292.926 328.428 294.488C328.628 296.009 328.948 297.19 329.388 298.03C329.868 298.871 330.468 299.451 331.188 299.772C331.908 300.092 332.768 300.252 333.768 300.252C335.248 300.252 336.568 300.192 337.728 300.072C338.887 299.912 339.767 299.772 340.367 299.652V293.887H334.188V284.64C335.068 284.52 336.108 284.42 337.308 284.34C338.547 284.26 339.807 284.2 341.087 284.16C342.407 284.08 343.607 284.04 344.687 284.04C346.127 284.04 347.387 284.06 348.467 284.1C349.587 284.1 350.607 284.12 351.527 284.16V310.64H342.767L341.207 307.698C340.247 308.338 338.747 309.039 336.708 309.799C334.668 310.56 332.388 310.94 329.868 310.94Z" fill="black"/>
<path d="M379.174 310.94C376.734 310.94 374.414 310.74 372.214 310.34C370.054 309.939 368.134 309.199 366.454 308.118C364.774 307.037 363.455 305.516 362.495 303.554C361.575 301.593 361.115 299.051 361.115 295.929V266.026H372.754V295.869C372.754 296.909 372.994 297.77 373.474 298.451C373.994 299.131 374.734 299.652 375.694 300.012C376.654 300.332 377.814 300.492 379.174 300.492C380.534 300.492 381.694 300.332 382.654 300.012C383.614 299.652 384.334 299.131 384.814 298.451C385.334 297.77 385.594 296.909 385.594 295.869V266.026H397.233V295.929C397.233 299.051 396.753 301.593 395.793 303.554C394.873 305.516 393.573 307.037 391.893 308.118C390.213 309.199 388.293 309.939 386.133 310.34C383.974 310.74 381.654 310.94 379.174 310.94Z" fill="black"/>
<path d="M406.855 310.64V266.026H425.875C427.835 266.026 429.634 266.266 431.274 266.747C432.914 267.227 434.334 268.048 435.534 269.209C436.734 270.329 437.654 271.851 438.294 273.772C438.974 275.694 439.314 278.115 439.314 281.038C439.314 282.879 439.154 284.48 438.834 285.841C438.514 287.202 438.074 288.363 437.514 289.324C436.994 290.244 436.354 291.025 435.594 291.666C434.874 292.306 434.094 292.866 433.254 293.347L440.994 310.64H429.174L422.935 295.268C422.575 295.268 422.195 295.268 421.795 295.268C421.435 295.268 421.075 295.268 420.715 295.268C420.355 295.268 419.975 295.268 419.575 295.268C419.215 295.268 418.855 295.268 418.495 295.268V310.64H406.855ZM418.495 286.021H423.775C424.415 286.021 424.975 285.941 425.455 285.781C425.935 285.581 426.335 285.281 426.655 284.88C427.015 284.48 427.275 283.98 427.435 283.379C427.595 282.739 427.674 281.978 427.674 281.098C427.674 280.217 427.595 279.476 427.435 278.876C427.275 278.275 427.015 277.815 426.655 277.495C426.335 277.135 425.935 276.874 425.455 276.714C424.975 276.554 424.415 276.474 423.775 276.474H418.495V286.021Z" fill="black"/>
<path d="M460.592 311C459.632 311 458.472 310.9 457.112 310.7C455.792 310.5 454.492 310.059 453.212 309.379C451.972 308.698 450.932 307.658 450.092 306.256C449.252 304.815 448.832 302.854 448.832 300.372V277.075C448.832 274.913 449.172 273.112 449.852 271.671C450.532 270.229 451.412 269.109 452.492 268.308C453.572 267.467 454.772 266.887 456.092 266.567C457.412 266.206 458.692 266.026 459.932 266.026C463.292 266.026 466.172 266.086 468.571 266.206C471.011 266.286 473.111 266.387 474.871 266.507C476.671 266.627 478.251 266.767 479.611 266.927V276.774H463.532C462.532 276.774 461.772 276.995 461.252 277.435C460.732 277.875 460.472 278.536 460.472 279.416V283.139L476.611 283.74V292.987L460.472 293.587V296.949C460.472 297.67 460.572 298.27 460.772 298.751C461.012 299.191 461.332 299.531 461.732 299.772C462.132 299.972 462.572 300.072 463.052 300.072H479.611V309.919C477.891 310.159 475.931 310.36 473.731 310.52C471.531 310.68 469.291 310.8 467.012 310.88C464.732 310.96 462.592 311 460.592 311Z" fill="black"/>
<path d="M502.621 311C501.301 311 500.001 310.96 498.721 310.88C497.481 310.8 496.241 310.68 495.001 310.52C493.801 310.36 492.641 310.179 491.521 309.979C490.401 309.779 489.321 309.539 488.281 309.259V300.012C489.641 300.132 491.101 300.232 492.661 300.312C494.261 300.392 495.861 300.452 497.461 300.492C499.101 300.532 500.621 300.552 502.021 300.552C503.341 300.552 504.441 300.452 505.321 300.252C506.201 300.052 506.861 299.732 507.301 299.291C507.741 298.851 507.961 298.25 507.961 297.49V296.769C507.961 295.889 507.641 295.228 507.001 294.788C506.401 294.348 505.681 294.127 504.841 294.127H501.661C497.021 294.127 493.501 293.107 491.101 291.065C488.701 289.024 487.501 285.601 487.501 280.797V278.816C487.501 274.413 488.821 271.13 491.461 268.968C494.101 266.767 497.901 265.666 502.861 265.666C504.741 265.666 506.501 265.766 508.141 265.966C509.82 266.126 511.38 266.347 512.82 266.627C514.3 266.867 515.62 267.127 516.78 267.407V276.654C514.94 276.494 512.86 276.374 510.54 276.294C508.261 276.174 506.181 276.114 504.301 276.114C503.181 276.114 502.181 276.194 501.301 276.354C500.421 276.514 499.741 276.834 499.261 277.315C498.781 277.795 498.541 278.496 498.541 279.416V280.017C498.541 281.018 498.861 281.778 499.501 282.298C500.141 282.819 501.121 283.079 502.441 283.079H506.401C509.2 283.079 511.52 283.619 513.36 284.7C515.24 285.741 516.64 287.182 517.56 289.024C518.52 290.825 519 292.886 519 295.208V297.19C519 300.993 518.34 303.895 517.02 305.896C515.7 307.898 513.82 309.259 511.38 309.979C508.94 310.66 506.021 311 502.621 311Z" fill="black"/>
<path d="M132.111 345V327.312H138.687C140.271 327.312 141.447 327.696 142.215 328.464C142.999 329.232 143.391 330.368 143.391 331.872C143.391 332.608 143.279 333.248 143.055 333.792C142.847 334.32 142.551 334.76 142.167 335.112C141.799 335.448 141.383 335.68 140.919 335.808C141.255 335.904 141.599 336.048 141.951 336.24C142.319 336.432 142.655 336.704 142.959 337.056C143.279 337.392 143.535 337.816 143.727 338.328C143.919 338.824 144.015 339.416 144.015 340.104C144.015 341.336 143.807 342.312 143.391 343.032C142.991 343.736 142.415 344.24 141.663 344.544C140.911 344.848 140.007 345 138.951 345H132.111ZM134.535 342.84H138.879C139.455 342.84 139.951 342.744 140.367 342.552C140.783 342.36 141.111 342.04 141.351 341.592C141.591 341.144 141.711 340.512 141.711 339.696C141.711 339.104 141.583 338.6 141.327 338.184C141.071 337.752 140.727 337.424 140.295 337.2C139.879 336.976 139.407 336.864 138.879 336.864H134.535V342.84ZM134.535 334.992H138.759C139.447 334.992 139.999 334.744 140.415 334.248C140.847 333.736 141.071 333.072 141.087 332.256C141.119 331.216 140.903 330.496 140.439 330.096C139.975 329.68 139.383 329.472 138.663 329.472H134.535V334.992ZM151.919 345.144C150.719 345.144 149.783 344.824 149.111 344.184C148.455 343.528 148.127 342.536 148.127 341.208V332.16H150.527V340.56C150.527 341.52 150.743 342.168 151.175 342.504C151.623 342.84 152.247 343.008 153.047 343.008C153.687 343.008 154.295 342.912 154.871 342.72C155.463 342.512 156.039 342.232 156.599 341.88V332.16H158.999V345H157.079L156.599 343.632C155.975 344.032 155.255 344.384 154.439 344.688C153.639 344.992 152.799 345.144 151.919 345.144ZM168.235 345.144C167.899 345.144 167.499 345.136 167.035 345.12C166.571 345.104 166.091 345.072 165.595 345.024C165.115 344.992 164.667 344.952 164.251 344.904C163.851 344.856 163.531 344.8 163.291 344.736V343.296H168.691C169.155 343.296 169.555 343.264 169.891 343.2C170.227 343.12 170.483 342.96 170.659 342.72C170.851 342.48 170.947 342.128 170.947 341.664V341.136C170.947 340.656 170.787 340.28 170.467 340.008C170.147 339.736 169.619 339.6 168.883 339.6H167.011C166.259 339.6 165.587 339.504 164.995 339.312C164.419 339.104 163.963 338.76 163.627 338.28C163.307 337.8 163.147 337.152 163.147 336.336V335.64C163.147 334.824 163.299 334.152 163.603 333.624C163.923 333.096 164.427 332.704 165.115 332.448C165.803 332.176 166.715 332.04 167.851 332.04C168.331 332.04 168.859 332.064 169.435 332.112C170.027 332.144 170.603 332.192 171.163 332.256C171.723 332.32 172.171 332.392 172.507 332.472V333.912H167.419C166.715 333.912 166.171 334.032 165.787 334.272C165.419 334.512 165.235 334.968 165.235 335.64V336.12C165.235 336.536 165.323 336.856 165.499 337.08C165.675 337.304 165.923 337.448 166.243 337.512C166.579 337.576 166.971 337.608 167.419 337.608H169.339C170.555 337.608 171.475 337.896 172.099 338.472C172.723 339.032 173.035 339.824 173.035 340.848V341.832C173.035 342.696 172.835 343.368 172.435 343.848C172.035 344.328 171.475 344.664 170.755 344.856C170.051 345.048 169.211 345.144 168.235 345.144ZM177.547 330C177.259 330 177.115 329.864 177.115 329.592V327.576C177.115 327.288 177.259 327.144 177.547 327.144H179.323C179.451 327.144 179.547 327.184 179.611 327.264C179.675 327.344 179.707 327.448 179.707 327.576V329.592C179.707 329.864 179.579 330 179.323 330H177.547ZM177.211 345V332.16H179.611V345H177.211ZM184.416 345V332.16H186.336L186.816 333.552C187.392 333.136 188.072 332.768 188.856 332.448C189.656 332.112 190.48 331.944 191.328 331.944C192.288 331.944 193.056 332.152 193.632 332.568C194.224 332.968 194.648 333.504 194.904 334.176C195.16 334.848 195.288 335.576 195.288 336.36V345H192.888V336.648C192.888 336.136 192.784 335.696 192.576 335.328C192.384 334.944 192.112 334.648 191.76 334.44C191.408 334.232 190.976 334.128 190.464 334.128C189.984 334.128 189.536 334.176 189.12 334.272C188.72 334.368 188.336 334.504 187.968 334.68C187.6 334.84 187.216 335.04 186.816 335.28V345H184.416ZM205.077 345.144C203.717 345.144 202.629 344.944 201.813 344.544C201.013 344.144 200.437 343.472 200.085 342.528C199.749 341.568 199.581 340.248 199.581 338.568C199.581 336.856 199.749 335.528 200.085 334.584C200.437 333.624 201.013 332.952 201.813 332.568C202.613 332.184 203.693 331.992 205.053 331.992C206.237 331.992 207.189 332.12 207.909 332.376C208.645 332.616 209.181 333.056 209.517 333.696C209.869 334.32 210.045 335.192 210.045 336.312C210.045 337.096 209.885 337.72 209.565 338.184C209.261 338.648 208.821 338.984 208.245 339.192C207.685 339.4 207.013 339.504 206.229 339.504H201.981C201.997 340.432 202.101 341.176 202.293 341.736C202.501 342.28 202.861 342.68 203.373 342.936C203.901 343.176 204.669 343.296 205.677 343.296H209.685V344.736C208.997 344.832 208.293 344.92 207.573 345C206.853 345.096 206.021 345.144 205.077 345.144ZM201.957 337.992H206.013C206.653 337.992 207.125 337.872 207.429 337.632C207.733 337.392 207.885 336.952 207.885 336.312C207.885 335.672 207.789 335.168 207.597 334.8C207.421 334.432 207.125 334.168 206.709 334.008C206.293 333.848 205.741 333.768 205.053 333.768C204.269 333.768 203.645 333.888 203.181 334.128C202.733 334.368 202.413 334.792 202.221 335.4C202.045 336.008 201.957 336.872 201.957 337.992ZM218.902 345.144C218.566 345.144 218.166 345.136 217.702 345.12C217.238 345.104 216.758 345.072 216.262 345.024C215.782 344.992 215.334 344.952 214.918 344.904C214.518 344.856 214.198 344.8 213.958 344.736V343.296H219.358C219.822 343.296 220.222 343.264 220.558 343.2C220.894 343.12 221.15 342.96 221.326 342.72C221.518 342.48 221.614 342.128 221.614 341.664V341.136C221.614 340.656 221.454 340.28 221.134 340.008C220.814 339.736 220.286 339.6 219.55 339.6H217.678C216.926 339.6 216.254 339.504 215.662 339.312C215.086 339.104 214.63 338.76 214.294 338.28C213.974 337.8 213.814 337.152 213.814 336.336V335.64C213.814 334.824 213.966 334.152 214.27 333.624C214.59 333.096 215.094 332.704 215.782 332.448C216.47 332.176 217.382 332.04 218.518 332.04C218.998 332.04 219.526 332.064 220.102 332.112C220.694 332.144 221.27 332.192 221.83 332.256C222.39 332.32 222.838 332.392 223.174 332.472V333.912H218.086C217.382 333.912 216.838 334.032 216.454 334.272C216.086 334.512 215.902 334.968 215.902 335.64V336.12C215.902 336.536 215.99 336.856 216.166 337.08C216.342 337.304 216.59 337.448 216.91 337.512C217.246 337.576 217.638 337.608 218.086 337.608H220.006C221.222 337.608 222.142 337.896 222.766 338.472C223.39 339.032 223.702 339.824 223.702 340.848V341.832C223.702 342.696 223.502 343.368 223.102 343.848C222.702 344.328 222.142 344.664 221.422 344.856C220.718 345.048 219.878 345.144 218.902 345.144ZM232.365 345.144C232.029 345.144 231.629 345.136 231.165 345.12C230.701 345.104 230.221 345.072 229.725 345.024C229.245 344.992 228.797 344.952 228.381 344.904C227.981 344.856 227.661 344.8 227.421 344.736V343.296H232.821C233.285 343.296 233.685 343.264 234.021 343.2C234.357 343.12 234.613 342.96 234.789 342.72C234.981 342.48 235.077 342.128 235.077 341.664V341.136C235.077 340.656 234.917 340.28 234.597 340.008C234.277 339.736 233.749 339.6 233.013 339.6H231.141C230.389 339.6 229.717 339.504 229.125 339.312C228.549 339.104 228.093 338.76 227.757 338.28C227.437 337.8 227.277 337.152 227.277 336.336V335.64C227.277 334.824 227.429 334.152 227.733 333.624C228.053 333.096 228.557 332.704 229.245 332.448C229.933 332.176 230.845 332.04 231.981 332.04C232.461 332.04 232.989 332.064 233.565 332.112C234.157 332.144 234.733 332.192 235.293 332.256C235.853 332.32 236.301 332.392 236.637 332.472V333.912H231.549C230.845 333.912 230.301 334.032 229.917 334.272C229.549 334.512 229.365 334.968 229.365 335.64V336.12C229.365 336.536 229.453 336.856 229.629 337.08C229.805 337.304 230.053 337.448 230.373 337.512C230.709 337.576 231.101 337.608 231.549 337.608H233.469C234.685 337.608 235.605 337.896 236.229 338.472C236.853 339.032 237.165 339.824 237.165 340.848V341.832C237.165 342.696 236.965 343.368 236.565 343.848C236.165 344.328 235.605 344.664 234.885 344.856C234.181 345.048 233.341 345.144 232.365 345.144ZM249.227 345V327.312H256.379C257.483 327.312 258.411 327.512 259.163 327.912C259.915 328.312 260.523 328.896 260.987 329.664C261.451 330.416 261.787 331.344 261.995 332.448C262.203 333.536 262.307 334.776 262.307 336.168C262.307 338.056 262.083 339.656 261.635 340.968C261.203 342.28 260.547 343.28 259.667 343.968C258.787 344.656 257.691 345 256.379 345H249.227ZM251.651 342.84H256.163C257.043 342.84 257.755 342.576 258.299 342.048C258.843 341.504 259.243 340.736 259.499 339.744C259.755 338.736 259.883 337.544 259.883 336.168C259.883 334.904 259.811 333.848 259.667 333C259.523 332.136 259.299 331.448 258.995 330.936C258.691 330.408 258.299 330.032 257.819 329.808C257.355 329.584 256.803 329.472 256.163 329.472H251.651V342.84ZM269.078 345.144C268.134 345.144 267.35 344.864 266.726 344.304C266.118 343.728 265.814 342.936 265.814 341.928V340.92C265.814 339.928 266.15 339.12 266.822 338.496C267.51 337.856 268.542 337.536 269.918 337.536H273.926V336.192C273.926 335.696 273.838 335.28 273.662 334.944C273.502 334.592 273.198 334.328 272.75 334.152C272.302 333.976 271.638 333.888 270.758 333.888H266.822V332.472C267.398 332.344 268.07 332.232 268.838 332.136C269.622 332.04 270.534 331.984 271.574 331.968C272.63 331.968 273.51 332.104 274.214 332.376C274.934 332.632 275.47 333.064 275.822 333.672C276.174 334.264 276.35 335.056 276.35 336.048V345H274.454L274.046 343.584C273.95 343.648 273.75 343.768 273.446 343.944C273.142 344.104 272.75 344.28 272.27 344.472C271.806 344.664 271.294 344.824 270.734 344.952C270.19 345.08 269.638 345.144 269.078 345.144ZM270.182 343.392C270.422 343.408 270.702 343.384 271.022 343.32C271.358 343.256 271.686 343.184 272.006 343.104C272.342 343.008 272.646 342.912 272.918 342.816C273.206 342.72 273.438 342.64 273.614 342.576C273.806 342.496 273.91 342.448 273.926 342.432V338.736L270.566 338.88C269.734 338.928 269.134 339.136 268.766 339.504C268.414 339.872 268.238 340.352 268.238 340.944V341.52C268.238 341.984 268.334 342.36 268.526 342.648C268.718 342.92 268.958 343.112 269.246 343.224C269.55 343.336 269.862 343.392 270.182 343.392ZM285.491 345C284.627 345 283.907 344.864 283.331 344.592C282.771 344.304 282.355 343.848 282.083 343.224C281.827 342.6 281.707 341.768 281.723 340.728L281.819 334.128H279.779V332.568L281.867 332.16L282.227 328.56H284.123V332.16H287.603V334.128H284.123V340.704C284.123 341.2 284.171 341.6 284.267 341.904C284.363 342.208 284.499 342.44 284.675 342.6C284.851 342.76 285.043 342.88 285.251 342.96C285.459 343.024 285.659 343.064 285.851 343.08L287.435 343.224V345H285.491ZM294.036 345.144C293.092 345.144 292.308 344.864 291.684 344.304C291.076 343.728 290.772 342.936 290.772 341.928V340.92C290.772 339.928 291.108 339.12 291.78 338.496C292.468 337.856 293.5 337.536 294.876 337.536H298.884V336.192C298.884 335.696 298.796 335.28 298.62 334.944C298.46 334.592 298.156 334.328 297.708 334.152C297.26 333.976 296.596 333.888 295.716 333.888H291.78V332.472C292.356 332.344 293.028 332.232 293.796 332.136C294.58 332.04 295.492 331.984 296.532 331.968C297.588 331.968 298.468 332.104 299.172 332.376C299.892 332.632 300.428 333.064 300.78 333.672C301.132 334.264 301.308 335.056 301.308 336.048V345H299.412L299.004 343.584C298.908 343.648 298.708 343.768 298.404 343.944C298.1 344.104 297.708 344.28 297.228 344.472C296.764 344.664 296.252 344.824 295.692 344.952C295.148 345.08 294.596 345.144 294.036 345.144ZM295.14 343.392C295.38 343.408 295.66 343.384 295.98 343.32C296.316 343.256 296.644 343.184 296.964 343.104C297.3 343.008 297.604 342.912 297.876 342.816C298.164 342.72 298.396 342.64 298.572 342.576C298.764 342.496 298.868 342.448 298.884 342.432V338.736L295.524 338.88C294.692 338.928 294.092 339.136 293.724 339.504C293.372 339.872 293.196 340.352 293.196 340.944V341.52C293.196 341.984 293.292 342.36 293.484 342.648C293.676 342.92 293.916 343.112 294.204 343.224C294.508 343.336 294.82 343.392 295.14 343.392ZM319.008 345.144C318.624 345.144 318.184 345.128 317.688 345.096C317.208 345.08 316.712 345.048 316.2 345C315.704 344.952 315.224 344.904 314.76 344.856C314.312 344.808 313.928 344.744 313.608 344.664V342.792C314.024 342.824 314.52 342.856 315.096 342.888C315.688 342.92 316.312 342.944 316.968 342.96C317.64 342.976 318.288 342.984 318.912 342.984C319.6 342.984 320.208 342.92 320.736 342.792C321.28 342.664 321.704 342.424 322.008 342.072C322.328 341.72 322.488 341.224 322.488 340.584V339.552C322.488 338.832 322.288 338.28 321.888 337.896C321.504 337.512 320.912 337.32 320.112 337.32H318.312C316.776 337.32 315.584 336.984 314.736 336.312C313.904 335.64 313.488 334.488 313.488 332.856V331.896C313.488 330.2 313.944 328.992 314.856 328.272C315.784 327.536 317.096 327.168 318.792 327.168C319.352 327.168 319.952 327.2 320.592 327.264C321.232 327.312 321.856 327.376 322.464 327.456C323.072 327.536 323.576 327.616 323.976 327.696V329.568C323.256 329.52 322.448 329.472 321.552 329.424C320.672 329.36 319.84 329.328 319.056 329.328C318.384 329.328 317.8 329.408 317.304 329.568C316.824 329.712 316.448 329.976 316.176 330.36C315.92 330.744 315.792 331.288 315.792 331.992V332.712C315.792 333.576 316.024 334.176 316.488 334.512C316.952 334.848 317.6 335.016 318.432 335.016H320.376C321.384 335.016 322.208 335.2 322.848 335.568C323.504 335.936 323.992 336.44 324.312 337.08C324.632 337.72 324.792 338.448 324.792 339.264V340.512C324.792 341.76 324.536 342.72 324.024 343.392C323.512 344.064 322.824 344.528 321.96 344.784C321.096 345.024 320.112 345.144 319.008 345.144ZM333.001 345.144C331.801 345.144 330.865 344.824 330.193 344.184C329.537 343.528 329.209 342.536 329.209 341.208V332.16H331.609V340.56C331.609 341.52 331.825 342.168 332.257 342.504C332.705 342.84 333.329 343.008 334.129 343.008C334.769 343.008 335.377 342.912 335.953 342.72C336.545 342.512 337.121 342.232 337.681 341.88V332.16H340.081V345H338.161L337.681 343.632C337.057 344.032 336.337 344.384 335.521 344.688C334.721 344.992 333.881 345.144 333.001 345.144ZM344.829 350.688V332.16H346.797L347.229 333.456C347.533 333.232 347.893 333.008 348.309 332.784C348.741 332.56 349.205 332.376 349.701 332.232C350.213 332.072 350.725 331.992 351.237 331.992C352.053 331.992 352.749 332.16 353.325 332.496C353.917 332.832 354.397 333.304 354.765 333.912C355.133 334.504 355.397 335.2 355.557 336C355.733 336.8 355.821 337.656 355.821 338.568C355.821 339.992 355.661 341.2 355.341 342.192C355.037 343.168 354.549 343.912 353.877 344.424C353.221 344.92 352.341 345.168 351.237 345.168C350.565 345.168 349.877 345.072 349.173 344.88C348.469 344.672 347.821 344.4 347.229 344.064V350.688H344.829ZM350.517 343.152C351.061 343.152 351.549 343.016 351.981 342.744C352.413 342.472 352.757 342.008 353.013 341.352C353.285 340.68 353.421 339.752 353.421 338.568C353.421 337.448 353.285 336.552 353.013 335.88C352.741 335.192 352.389 334.704 351.957 334.416C351.525 334.112 351.053 333.96 350.541 333.96C349.869 333.96 349.253 334.064 348.693 334.272C348.149 334.48 347.661 334.696 347.229 334.92V342.24C347.725 342.512 348.253 342.736 348.813 342.912C349.389 343.072 349.957 343.152 350.517 343.152ZM365.255 345.144C363.895 345.144 362.807 344.944 361.991 344.544C361.191 344.144 360.615 343.472 360.263 342.528C359.927 341.568 359.759 340.248 359.759 338.568C359.759 336.856 359.927 335.528 360.263 334.584C360.615 333.624 361.191 332.952 361.991 332.568C362.791 332.184 363.871 331.992 365.231 331.992C366.415 331.992 367.367 332.12 368.087 332.376C368.823 332.616 369.359 333.056 369.695 333.696C370.047 334.32 370.223 335.192 370.223 336.312C370.223 337.096 370.063 337.72 369.743 338.184C369.439 338.648 368.999 338.984 368.423 339.192C367.863 339.4 367.191 339.504 366.407 339.504H362.159C362.175 340.432 362.279 341.176 362.471 341.736C362.679 342.28 363.039 342.68 363.551 342.936C364.079 343.176 364.847 343.296 365.855 343.296H369.863V344.736C369.175 344.832 368.471 344.92 367.751 345C367.031 345.096 366.199 345.144 365.255 345.144ZM362.135 337.992H366.191C366.831 337.992 367.303 337.872 367.607 337.632C367.911 337.392 368.063 336.952 368.063 336.312C368.063 335.672 367.967 335.168 367.775 334.8C367.599 334.432 367.303 334.168 366.887 334.008C366.471 333.848 365.919 333.768 365.231 333.768C364.447 333.768 363.823 333.888 363.359 334.128C362.911 334.368 362.591 334.792 362.399 335.4C362.223 336.008 362.135 336.872 362.135 337.992ZM374.592 345V332.16H376.44L376.992 334.32C377.536 333.664 378.144 333.112 378.816 332.664C379.488 332.216 380.272 331.992 381.168 331.992C381.376 331.992 381.576 332.008 381.768 332.04C381.96 332.056 382.144 332.088 382.32 332.136V334.608C382.096 334.576 381.864 334.552 381.624 334.536C381.384 334.504 381.136 334.488 380.88 334.488C380.336 334.488 379.848 334.552 379.416 334.68C378.984 334.808 378.568 335.008 378.168 335.28C377.784 335.536 377.392 335.856 376.992 336.24V345H374.592ZM390.504 345.144C390.168 345.144 389.768 345.136 389.304 345.12C388.84 345.104 388.36 345.072 387.864 345.024C387.384 344.992 386.936 344.952 386.52 344.904C386.12 344.856 385.8 344.8 385.56 344.736V343.296H390.96C391.424 343.296 391.824 343.264 392.16 343.2C392.496 343.12 392.752 342.96 392.928 342.72C393.12 342.48 393.216 342.128 393.216 341.664V341.136C393.216 340.656 393.056 340.28 392.736 340.008C392.416 339.736 391.888 339.6 391.152 339.6H389.28C388.528 339.6 387.856 339.504 387.264 339.312C386.688 339.104 386.232 338.76 385.896 338.28C385.576 337.8 385.416 337.152 385.416 336.336V335.64C385.416 334.824 385.568 334.152 385.872 333.624C386.192 333.096 386.696 332.704 387.384 332.448C388.072 332.176 388.984 332.04 390.12 332.04C390.6 332.04 391.128 332.064 391.704 332.112C392.296 332.144 392.872 332.192 393.432 332.256C393.992 332.32 394.44 332.392 394.776 332.472V333.912H389.688C388.984 333.912 388.44 334.032 388.056 334.272C387.688 334.512 387.504 334.968 387.504 335.64V336.12C387.504 336.536 387.592 336.856 387.768 337.08C387.944 337.304 388.192 337.448 388.512 337.512C388.848 337.576 389.24 337.608 389.688 337.608H391.608C392.824 337.608 393.744 337.896 394.368 338.472C394.992 339.032 395.304 339.824 395.304 340.848V341.832C395.304 342.696 395.104 343.368 394.704 343.848C394.304 344.328 393.744 344.664 393.024 344.856C392.32 345.048 391.48 345.144 390.504 345.144ZM404.544 345.144C403.184 345.144 402.096 344.944 401.28 344.544C400.48 344.144 399.904 343.472 399.552 342.528C399.216 341.568 399.048 340.248 399.048 338.568C399.048 336.856 399.216 335.528 399.552 334.584C399.904 333.624 400.48 332.952 401.28 332.568C402.08 332.184 403.16 331.992 404.52 331.992C405.704 331.992 406.656 332.12 407.376 332.376C408.112 332.616 408.648 333.056 408.984 333.696C409.336 334.32 409.512 335.192 409.512 336.312C409.512 337.096 409.352 337.72 409.032 338.184C408.728 338.648 408.288 338.984 407.712 339.192C407.152 339.4 406.48 339.504 405.696 339.504H401.448C401.464 340.432 401.568 341.176 401.76 341.736C401.968 342.28 402.328 342.68 402.84 342.936C403.368 343.176 404.136 343.296 405.144 343.296H409.152V344.736C408.464 344.832 407.76 344.92 407.04 345C406.32 345.096 405.488 345.144 404.544 345.144ZM401.424 337.992H405.48C406.12 337.992 406.592 337.872 406.896 337.632C407.2 337.392 407.352 336.952 407.352 336.312C407.352 335.672 407.256 335.168 407.064 334.8C406.888 334.432 406.592 334.168 406.176 334.008C405.76 333.848 405.208 333.768 404.52 333.768C403.736 333.768 403.112 333.888 402.648 334.128C402.2 334.368 401.88 334.792 401.688 335.4C401.512 336.008 401.424 336.872 401.424 337.992ZM418.321 345C417.457 345 416.737 344.864 416.161 344.592C415.601 344.304 415.185 343.848 414.913 343.224C414.657 342.6 414.537 341.768 414.553 340.728L414.649 334.128H412.609V332.568L414.697 332.16L415.057 328.56H416.953V332.16H420.433V334.128H416.953V340.704C416.953 341.2 417.001 341.6 417.097 341.904C417.193 342.208 417.329 342.44 417.505 342.6C417.681 342.76 417.873 342.88 418.081 342.96C418.289 343.024 418.489 343.064 418.681 343.08L420.265 343.224V345H418.321ZM428.785 345.144C428.449 345.144 428.049 345.136 427.585 345.12C427.121 345.104 426.641 345.072 426.145 345.024C425.665 344.992 425.217 344.952 424.801 344.904C424.401 344.856 424.081 344.8 423.841 344.736V343.296H429.241C429.705 343.296 430.105 343.264 430.441 343.2C430.777 343.12 431.033 342.96 431.209 342.72C431.401 342.48 431.497 342.128 431.497 341.664V341.136C431.497 340.656 431.337 340.28 431.017 340.008C430.697 339.736 430.169 339.6 429.433 339.6H427.561C426.809 339.6 426.137 339.504 425.545 339.312C424.969 339.104 424.513 338.76 424.177 338.28C423.857 337.8 423.697 337.152 423.697 336.336V335.64C423.697 334.824 423.849 334.152 424.153 333.624C424.473 333.096 424.977 332.704 425.665 332.448C426.353 332.176 427.265 332.04 428.401 332.04C428.881 332.04 429.409 332.064 429.985 332.112C430.577 332.144 431.153 332.192 431.713 332.256C432.273 332.32 432.721 332.392 433.057 332.472V333.912H427.969C427.265 333.912 426.721 334.032 426.337 334.272C425.969 334.512 425.785 334.968 425.785 335.64V336.12C425.785 336.536 425.873 336.856 426.049 337.08C426.225 337.304 426.473 337.448 426.793 337.512C427.129 337.576 427.521 337.608 427.969 337.608H429.889C431.105 337.608 432.025 337.896 432.649 338.472C433.273 339.032 433.585 339.824 433.585 340.848V341.832C433.585 342.696 433.385 343.368 432.985 343.848C432.585 344.328 432.025 344.664 431.305 344.856C430.601 345.048 429.761 345.144 428.785 345.144Z" fill="black"/>
<path d="M186.815 172.604C168.312 75.418 221.602 17.0405 250.56 0L306.972 6.04664V33.5313L287.228 36.8295L283.843 50.5719L257.894 56.0688C255.449 65.9633 250.56 82.784 250.56 128.079C301.557 72.2298 359.435 113.237 382 133.576V183.598C350.597 201.188 267.597 223.616 186.815 172.604Z" fill="black"/>
</svg>
