<svg width="1539" height="147" viewBox="0 0 1539 147" fill="none" xmlns="http://www.w3.org/2000/svg">
<path d="M0 145.833V1.3611H37.7914V56.9722H80.6476V1.3611H118.439V145.833H80.6476V90.8055H37.7914V145.833H0Z" fill="black"/>
<path d="M183.653 145.833V104.806L141.771 1.3611H180.926L203.328 66.3056L225.73 1.3611H263.327L221.444 104.806V145.833H183.653Z" fill="black"/>
<path d="M286.662 145.833V1.3611H350.167C355.102 1.3611 360.167 1.94443 365.361 3.1111C370.556 4.14813 375.296 6.41666 379.582 9.91665C383.997 13.287 387.504 18.4722 390.101 25.4722C392.828 32.3426 394.192 41.5463 394.192 53.0833C394.192 64.75 392.893 74.1482 390.296 81.2778C387.698 88.2778 384.322 93.5926 380.166 97.2222C376.01 100.722 371.465 103.12 366.53 104.417C361.725 105.583 356.985 106.167 352.31 106.167C349.842 106.167 347.245 106.037 344.518 105.778C341.92 105.519 339.323 105.194 336.725 104.806C334.258 104.287 331.92 103.833 329.713 103.444C327.635 102.926 325.882 102.537 324.453 102.278V145.833H286.662ZM324.453 72.3333H346.271C348.868 72.3333 350.881 71.6204 352.31 70.1944C353.868 68.7685 354.907 66.6944 355.426 63.9722C356.076 61.1204 356.4 57.6204 356.4 53.4722C356.4 49.4537 356.011 46.0834 355.232 43.3611C354.582 40.6389 353.543 38.6296 352.115 37.3333C350.686 35.9074 348.738 35.1945 346.271 35.1945H324.453V72.3333Z" fill="black"/>
<path d="M459.803 147C456.686 147 452.92 146.676 448.505 146.028C444.219 145.38 439.998 143.954 435.843 141.75C431.817 139.546 428.44 136.176 425.713 131.639C422.986 126.972 421.622 120.62 421.622 112.583V37.1389C421.622 30.1388 422.726 24.3055 424.934 19.6389C427.141 14.9722 429.999 11.3426 433.505 8.74999C437.011 6.02778 440.907 4.14813 445.193 3.1111C449.479 1.94443 453.634 1.3611 457.66 1.3611C468.569 1.3611 477.92 1.55555 485.712 1.94444C493.633 2.20369 500.452 2.52776 506.166 2.91666C512.01 3.30554 517.14 3.75926 521.555 4.27778V36.1667H469.348C466.102 36.1667 463.634 36.8797 461.946 38.3056C460.258 39.7315 459.413 41.8704 459.413 44.7222V56.7778L511.815 58.7222V88.6667L459.413 90.6111V101.5C459.413 103.833 459.738 105.778 460.388 107.333C461.167 108.759 462.206 109.861 463.504 110.639C464.803 111.287 466.232 111.611 467.79 111.611H521.555V143.5C515.971 144.278 509.607 144.926 502.464 145.444C495.322 145.963 488.049 146.352 480.647 146.611C473.244 146.87 466.297 147 459.803 147Z" fill="black"/>
<path d="M550.876 145.833V1.3611H612.627C618.991 1.3611 624.835 2.13888 630.16 3.69444C635.484 5.24999 640.094 7.90739 643.99 11.6667C647.886 15.2963 650.873 20.2222 652.951 26.4444C655.159 32.6666 656.263 40.5092 656.263 49.9722C656.263 55.9352 655.743 61.1204 654.704 65.5278C653.666 69.9352 652.237 73.6944 650.419 76.8056C648.731 79.787 646.653 82.3148 644.185 84.3889C641.848 86.463 639.315 88.2778 636.588 89.8334L661.717 145.833H623.341L603.082 96.0556C601.913 96.0556 600.68 96.0556 599.381 96.0556C598.212 96.0556 597.043 96.0556 595.875 96.0556C594.706 96.0556 593.472 96.0556 592.173 96.0556C591.005 96.0556 589.836 96.0556 588.667 96.0556V145.833H550.876ZM588.667 66.1111H605.809C607.887 66.1111 609.705 65.8518 611.264 65.3333C612.822 64.6852 614.121 63.7129 615.16 62.4166C616.329 61.1203 617.173 59.5 617.692 57.5556C618.212 55.4815 618.472 53.0185 618.472 50.1666C618.472 47.3148 618.212 44.9167 617.692 42.9722C617.173 41.0278 616.329 39.5371 615.16 38.5C614.121 37.3334 612.822 36.4907 611.264 35.9722C609.705 35.4537 607.887 35.1945 605.809 35.1945H588.667V66.1111Z" fill="black"/>
<path d="M687.168 145.833V37.1389C687.168 30.1388 688.272 24.3055 690.479 19.6389C692.687 14.9722 695.544 11.3426 699.051 8.74999C702.557 6.02778 706.453 4.14813 710.739 3.1111C715.024 1.94443 719.18 1.3611 723.206 1.3611C727.232 1.3611 732.816 1.42591 739.959 1.55554C747.101 1.55554 754.829 1.8148 763.14 2.33332C771.581 2.72221 779.568 3.43516 787.101 4.47219V36.1667H734.115C730.868 36.1667 728.53 37.074 727.102 38.8889C725.673 40.574 724.959 42.3889 724.959 44.3333V60.6666L777.36 62.6111V92.5555L724.959 94.5V145.833H687.168Z" fill="black"/>
<path d="M814.329 145.833V1.3611H852.12V145.833H814.329Z" fill="black"/>
<path d="M924.919 146.806C915.958 146.806 908.621 144.926 902.907 141.167C897.322 137.278 892.972 132.028 889.855 125.417C886.738 118.676 884.53 110.898 883.232 102.083C882.063 93.2685 881.479 83.8704 881.479 73.8889C881.479 62.7407 882.193 52.6297 883.621 43.5556C885.18 34.4815 887.907 26.7037 891.803 20.2222C895.829 13.7407 901.543 8.74997 908.946 5.24997C916.348 1.74997 925.958 0 937.776 0C945.438 0 951.997 0.324071 957.451 0.972219C963.035 1.49074 968.23 2.33333 973.035 3.5C977.84 4.53704 982.84 5.76851 988.035 7.19443V36.5555C985.178 36.037 981.541 35.5833 977.126 35.1945C972.71 34.8056 967.775 34.4815 962.321 34.2222C956.866 33.963 951.087 33.8333 944.984 33.8333C937.451 33.8333 931.867 35 928.231 37.3333C924.595 39.537 922.192 43.5556 921.023 49.3889C919.854 55.2222 919.27 63.3889 919.27 73.8889C919.27 81.9259 919.595 88.4722 920.244 93.5277C920.893 98.4537 921.932 102.278 923.361 105C924.919 107.722 926.867 109.602 929.205 110.639C931.542 111.676 934.335 112.194 937.581 112.194C942.386 112.194 946.672 112 950.438 111.611C954.204 111.093 957.061 110.639 959.009 110.25V91.5833H938.945V61.6389C941.802 61.25 945.179 60.9259 949.075 60.6666C953.1 60.4074 957.191 60.213 961.347 60.0833C965.633 59.8241 969.528 59.6944 973.035 59.6944C977.71 59.6944 981.801 59.7593 985.307 59.8889C988.944 59.8889 992.255 59.9537 995.242 60.0833V145.833H966.801L961.737 136.306C958.62 138.38 953.75 140.648 947.126 143.111C940.503 145.574 933.101 146.806 924.919 146.806Z" fill="black"/>
<path d="M1085.01 146.806C1077.09 146.806 1069.55 146.157 1062.41 144.861C1055.4 143.565 1049.16 141.167 1043.71 137.667C1038.26 134.167 1033.97 129.241 1030.85 122.889C1027.87 116.537 1026.37 108.306 1026.37 98.1944V1.3611H1064.16V98C1064.16 101.37 1064.94 104.157 1066.5 106.361C1068.19 108.565 1070.59 110.25 1073.71 111.417C1076.83 112.454 1080.59 112.972 1085.01 112.972C1089.42 112.972 1093.19 112.454 1096.31 111.417C1099.42 110.25 1101.76 108.565 1103.32 106.361C1105.01 104.157 1105.85 101.37 1105.85 98V1.3611H1143.64V98.1944C1143.64 108.306 1142.08 116.537 1138.97 122.889C1135.98 129.241 1131.76 134.167 1126.31 137.667C1120.85 141.167 1114.62 143.565 1107.6 144.861C1100.59 146.157 1093.06 146.806 1085.01 146.806Z" fill="black"/>
<path d="M1174.89 145.833V1.3611H1236.64C1243 1.3611 1248.84 2.13888 1254.17 3.69444C1259.49 5.24999 1264.1 7.90739 1268 11.6667C1271.9 15.2963 1274.88 20.2222 1276.96 26.4444C1279.17 32.6666 1280.27 40.5092 1280.27 49.9722C1280.27 55.9352 1279.75 61.1204 1278.71 65.5278C1277.68 69.9352 1276.25 73.6944 1274.43 76.8056C1272.74 79.787 1270.66 82.3148 1268.19 84.3889C1265.86 86.463 1263.32 88.2778 1260.6 89.8334L1285.73 145.833H1247.35L1227.09 96.0556C1225.92 96.0556 1224.69 96.0556 1223.39 96.0556C1222.22 96.0556 1221.05 96.0556 1219.88 96.0556C1218.72 96.0556 1217.48 96.0556 1216.18 96.0556C1215.01 96.0556 1213.85 96.0556 1212.68 96.0556V145.833H1174.89ZM1212.68 66.1111H1229.82C1231.9 66.1111 1233.72 65.8518 1235.27 65.3333C1236.83 64.6852 1238.13 63.7129 1239.17 62.4166C1240.34 61.1203 1241.18 59.5 1241.7 57.5556C1242.22 55.4815 1242.48 53.0185 1242.48 50.1666C1242.48 47.3148 1242.22 44.9167 1241.7 42.9722C1241.18 41.0278 1240.34 39.5371 1239.17 38.5C1238.13 37.3334 1236.83 36.4907 1235.27 35.9722C1233.72 35.4537 1231.9 35.1945 1229.82 35.1945H1212.68V66.1111Z" fill="black"/>
<path d="M1349.36 147C1346.24 147 1342.48 146.676 1338.06 146.028C1333.77 145.38 1329.55 143.954 1325.4 141.75C1321.37 139.546 1318 136.176 1315.27 131.639C1312.54 126.972 1311.18 120.62 1311.18 112.583V37.1389C1311.18 30.1388 1312.28 24.3055 1314.49 19.6389C1316.7 14.9722 1319.55 11.3426 1323.06 8.74999C1326.57 6.02778 1330.46 4.14813 1334.75 3.1111C1339.03 1.94443 1343.19 1.3611 1347.22 1.3611C1358.12 1.3611 1367.47 1.55555 1375.27 1.94444C1383.19 2.20369 1390.01 2.52776 1395.72 2.91666C1401.56 3.30554 1406.69 3.75926 1411.11 4.27778V36.1667H1358.9C1355.66 36.1667 1353.19 36.8797 1351.5 38.3056C1349.81 39.7315 1348.97 41.8704 1348.97 44.7222V56.7778L1401.37 58.7222V88.6667L1348.97 90.6111V101.5C1348.97 103.833 1349.29 105.778 1349.94 107.333C1350.72 108.759 1351.76 109.861 1353.06 110.639C1354.36 111.287 1355.79 111.611 1357.35 111.611H1411.11V143.5C1405.53 144.278 1399.16 144.926 1392.02 145.444C1384.88 145.963 1377.6 146.352 1370.2 146.611C1362.8 146.87 1355.85 147 1349.36 147Z" fill="black"/>
<path d="M1485.82 147C1481.53 147 1477.31 146.87 1473.16 146.611C1469.13 146.352 1465.11 145.963 1461.08 145.444C1457.18 144.926 1453.42 144.343 1449.78 143.694C1446.14 143.046 1442.64 142.269 1439.26 141.361V111.417C1443.68 111.806 1448.42 112.13 1453.48 112.389C1458.68 112.648 1463.87 112.843 1469.07 112.972C1474.39 113.102 1479.33 113.167 1483.87 113.167C1488.16 113.167 1491.73 112.843 1494.59 112.194C1497.44 111.546 1499.59 110.509 1501.01 109.083C1502.44 107.657 1503.16 105.713 1503.16 103.25V100.917C1503.16 98.0648 1502.12 95.926 1500.04 94.5C1498.09 93.0741 1495.75 92.3611 1493.03 92.3611H1482.7C1467.64 92.3611 1456.21 89.0555 1448.42 82.4444C1440.63 75.8333 1436.73 64.75 1436.73 49.1945V42.7778C1436.73 28.5185 1441.02 17.8889 1449.59 10.8889C1458.16 3.75926 1470.5 0.194439 1486.6 0.194439C1492.7 0.194439 1498.42 0.51851 1503.74 1.16666C1509.2 1.68518 1514.26 2.39816 1518.94 3.30556C1523.74 4.08333 1528.03 4.92593 1531.79 5.83334V35.7778C1525.82 35.2593 1519.07 34.8704 1511.53 34.6111C1504.13 34.2222 1497.38 34.0277 1491.27 34.0277C1487.64 34.0277 1484.39 34.287 1481.53 34.8055C1478.68 35.3241 1476.47 36.3611 1474.91 37.9167C1473.35 39.4722 1472.57 41.7407 1472.57 44.7222V46.6667C1472.57 49.9074 1473.61 52.3703 1475.69 54.0555C1477.77 55.7407 1480.95 56.5833 1485.24 56.5833H1498.09C1507.18 56.5833 1514.71 58.3333 1520.69 61.8333C1526.79 65.2037 1531.34 69.8704 1534.32 75.8333C1537.44 81.6666 1539 88.3426 1539 95.8611V102.278C1539 114.593 1536.86 123.991 1532.57 130.472C1528.29 136.954 1522.18 141.361 1514.26 143.694C1506.34 145.898 1496.86 147 1485.82 147Z" fill="black"/>
</svg>
